/* XPM */
static char *space[] = {
/* columns rows colors chars-per-pixel */
"128 128 77 1 ",
"  c #AD7FFD",
". c #B17FFE",
"X c #A585DB",
"o c #A68CDB",
"O c #A992D7",
"+ c #AE92DE",
"@ c #B296DB",
"# c #BAA3DC",
"$ c #A585E3",
"% c #AA85E5",
"& c #AC8DE4",
"* c #A584EB",
"= c #AA85EC",
"- c #A78AEA",
"; c #AD8AEC",
": c #AE92E4",
"> c #B698E4",
", c #B99DE6",
"< c #B492EB",
"1 c #B099EB",
"2 c #A583F4",
"3 c #AC84F4",
"4 c #AC88F4",
"5 c #AD83FF",
"6 c #AC88FC",
"7 c #B084F5",
"8 c #B28AF7",
"9 c #B182FC",
"0 c #B592F4",
"q c #B892F6",
"w c #B592F9",
"e c #BA9BFA",
"r c #BBA3E2",
"t c #BFAEE5",
"y c #BFA1F9",
"u c #C39CFC",
"i c #C3ABEA",
"p c #CBB9EC",
"a c #C6A7F2",
"s c #CEAFF3",
"d c #C2A3FC",
"f c #CCAEFC",
"g c #D1ADF8",
"h c #CDB4F4",
"j c #D0B1F1",
"k c #D3BAF4",
"l c #DBBDF5",
"z c #D7B2FC",
"x c #D5BBFB",
"c c #D2C0F6",
"v c #DDC5F6",
"b c #DCC9F6",
"n c #DBC3F9",
"m c #E1CBF4",
"M c #E6C3FF",
"N c #E3CEF9",
"B c #E5D1F5",
"V c #E9D3F6",
"C c #E7DEF6",
"Z c #E3D1FB",
"A c #EAD1FD",
"S c #ECDCFC",
"D c #F0D6FC",
"F c #F1DEFD",
"G c #FCFEEF",
"H c #EAE4F7",
"J c #EFE3FE",
"K c #F0E2F6",
"L c #F9EEF6",
"P c #F3E4FE",
"I c #F8E4FF",
"U c #F5EBFD",
"Y c #FAEEFD",
"T c #F3F2F6",
"R c #FAFCF3",
"E c #FCF3FE",
"W c #FEFAFD",
/* pixels */
"55555555555555555555555555555555555555555555555555555555955555555555555555555555555555555555555555555555555555555555555555555555",
"55555555555555555555555555555555555555555555555555555555555555555555555555555555555555555555555555555555555555555555555555555555",
"55555555555555555555555555555555555555555555555555555555555555555555555555555555555555555555555555555555555555555555555555555555",
"55555555555555555555555555555555555555555555555555555555555555555555555555555555555555555555555555555555555555555555555555555555",
"55555555555555555555555555555555555555555555555555555555555555555555555555555555555555555555555555555555555555555555555555555555",
"55555555555555555555555555555555555555555555555555555555555555555555555555555555555555555555555555555555555555555555555555555555",
"55555555555555555555555555555555555555555555555555555555555555555555555555555555555555555555555555955555555555555555555555555555",
"55555555555555555555555555555555555555555555555555555555555555555555555555555555555555555555555555555555555555555555555555555555",
"55555555555555555555555555555555555555555555555555555555555555555555555555555555555555555555555555555555555555555555555555555555",
"55555555555555555555555555555555555555555555555555555555555555555555555555555555555555555555555555555555555555555555555555555555",
"55555555555555555555555555555555555555555555555555555555555555555555555555555555555555555555555555555555555555555555555555555555",
"55555555555555555555555555555555555555555555555555555555555555555555555555555555555555555555555555555555555555555555555555555555",
"55555555555555555555555555555555555555555555555555555555555555555555555555555555555555555555555555555555555555555555555555555555",
"55555555555555555555555555555555555555555555555555555555555555555555555555555555555555555555555555555555555555555555555555555555",
"55555555555555555555555555555555555555555555 55555555555555555555555555555555555555555555555555555555555555555555555555555555555",
"55555555555555555555555555555555555555555555855555555555555555555555555555555555555555555555555555555555555555555555555595555555",
"55555555555555555595555555555555555555555535A99555555555555555555555555555555555555555555555555555555555555555555555555555555555",
"55555555555555555555555555555555555555555556Y59555555555555555555555555555555555555555555555555555555555555555555555555555555555",
"55555555555555555555555555555555555555555553E5 .55555555555555555555555555555555555535555555555555555555555555555555555555555555",
"55555559555555555555555555555555555555553yPERYSw555555555555555555555555555555555555e3555555555555555555555555555555555555555555",
"555555555555555555555555555555555555555555=%E33 55555555555555555555555556555555559.n*555555555555555555555559555555555555555555",
"555555555555555555555555555555555555555559..Y.57555555555555555555555555555555555559S<555555555555555555555555555555555555555555",
"55555555555555555555555555555555555555555556F  55555555555555555555555555555555553<FWLV35555555555555555555555555555555555555555",
"55555555555555555555555555555555555555555555d 5.555555555555555555555555555555555556m;599555555555555555555555555555555555555555",
"55555555555555555555555555555555555555555555653.555555555555555555555555555555555535v%795555555555555555555555555555555555555555",
"55555555555555555555555555555555555555555555555555555555555555555555555555555555555583355555555555555555555555555555555555555555",
"55555555555555555555555555555555555555555555355555555555555555555555955555555555555555555555555555555555555555555555555555555555",
"55555555555555555555555555555555555555555555555555555555555555555555555555555555555555555555555555555555555555555555555555555555",
"55555555555555555555555555555555555555555555555555555555555555555555555555555555555555555555555555555555555555555555555555555555",
"55555555555555555555555555555555555555555555555555555555555555555555555555555555555555555555555555555555555555555555555555555555",
"55555555555555555555555555555555555555555555555555555555555555555555555555555555555555555555555555555555555555555555555555555555",
"55555555555555555555555555555555555555555555555555555555555555555555555555555555555555555555555555555555555555555555555555555555",
"55555555555555555555555555555555555555555555555555555555555555555555555555555555555555555555555555555555555555555555555555555555",
"55555555555555555555555555555555555555555555555555555555555555555555555555555555555555555555555555555555555555555555555555555555",
"55555555555555555555555555555555555555555555555555555555555555555555555555555555555555555555555555555555555555555555559555555555",
"55555555555555555555555555555555555555555555555555555555555555555555555555555555555555555555555555555555555555555555533555555555",
"555555555555555555555555555555555555555555555555555555555555555555555555555555555555555555555555555555555555555555553><955555555",
"555555555555555555539555555555555555555555555555555555555555555555555555555555555555555555555555555555559655555555555ph 55555555",
"5555555555555555556z3 55555555555555555555555555555555555555555555555555555555555555555555555555555555555555555555665vl 95555555",
"5555555555555555555I59655555555555555555555555555555555555555555555555555555555555555555555555555555555555555555553xURRUk6555555",
"5555555555555555565E99555555555555555555555555555555555555556555555555555555555555555555555555555555555555555555555*@CZ:*5555555",
"555555555555555964$E$*95555555555555555555555555555555555559=55555555555555555555555555555555555555555555555555555 59ck935555555",
"5555555555555555=hBWNh6555555555555555555555555555555555553.$ 5555555555555555555555555555555555555555555555555555553r, 55555555",
"5555555555555555534E8355555555555555555555555555555555555555+%5555555555555555555555555555555555555555555555555555555&- .5555555",
"5555555555555555523E.5555555555555555555555555555555555555<PELS<5555555555555555595555555555555555555555555555555555553355555555",
"5555555555555555555A .55555555555555555555555555555555555556X4  9955555555555555555555555555655555555555555555555555555555555555",
"555555555555555555 e2555555555555555555555555555555555555535X%355555555555555555555555555559555555555555555555555555535555555555",
"555555555555555555555355555555555555555555555555555555555553=735555555555555555555555555555=955555555555555555555555555555555555",
"55555555555555555558555555555555555555555555555555555555555555555555555555555555555555555.6m955555555555555555555555555555555555",
"5555555555555555555555555555555559555555555555555555555555555555555555555555555555555555576P595555555555555555555555555555555555",
"555555555555555555555555555555555555555555555555555555555555555555555555555555555555555553-U3=3555555555555555555555555555555555",
"5555555555555555555555555555555555555555555555555555555555555555555555555555555555555555 nFRDz3555555555555555555555555555555555",
"5555555555555555555555555555555555555555555555555555555555555555555555555555555555555555357P955565555555555555555555555555555555",
"5555555555555555555555555555555555555555555555555555555555555555555555555555555555555555553N955595555555555555555555555555555555",
"55555555555555555555555555555555555555555555555555555555555555555555555555555555555555555 5u355555555555555555555555555555555555",
"55555555555555555555555555555555555555555555555555555555555555555555555555555555555555555556555555555555555555555555555555555555",
"55555555555555555555555555555555555555555555555555555555555555555555555555555555555555555555555555555555555555555555555555555555",
"55555555555555555555555555555555555555555555555555555555555555555555555555555555555555555555555555555555555555555555555555555555",
"55555555555555555555555555555555555555555555555555555555555555555555555555555555555555555555555555555555555555555555555555555555",
"55555555555555555555555555555555555555555555555555555555955555555555555555555555555555555555555555555555555555555555555555555555",
"55555555555555555555555555555555555555555555555555555555555555555555555555555555555555555555555555555555555555555555555555555555",
"55555555555555555555555555555555555555555555555555555555555555555555555555555555555555555555555555555555555555555555555555555555",
"55555555555555555555555555555555555555555555555555555555555555555555555555555555555555555555555555555555555555555555555555555555",
"55555555555555555555555555555555555555555555555555555555555555555555555555555555555555555555555555555555555555555555555555555555",
"55555555555595555555555555555555555555555555555555555555555555555555555555555555555555555555555555555555555555555555555555555555",
"55555555555555555555555555555555555555555555555555555555555555555555555555555555555555555555555555555555555555555555555555555555",
"55555555555555555555555555555555555555555555555555555555555555555555555555555555555555555555555555555555555555555555555555555555",
"55555555555555555555555555555555555555555555555555555555555555555555555555555555555555555555555555555555555555555555555555555555",
"55555555555555555555555555555555555555555555555555555555555555555555555555555555555555555555555555955555555555555555555555555555",
"55555555555555555555555555555555555555555555555555555555555555555 54555555555555555555555555555555555555555555555555555555555555",
"55555555555555555555555555555555555555555555555555555555555555555.5l 55555555555555555555555555555555555555555555555555555955555",
"55555555555555555555555555555555555555555555555555555555555555555.6S355555555555555555555555555555555555555555555555555555655555",
"55555555555555555555555555555555555555555555555555555555555555555 4U*=3555555555555555555555555555555555555555555555555555395555",
"555555555555555555555555555555559555555555555555555555555555555  $iTi%5555555555555555555555555555555555555555555555555555555555",
"5555555555555555555555556955555555555555555555555555555555555555557P;55535555555555555555555555555555555555555555555555555655555",
"5555555555555555555555555555555555555555555555555555555555555555553B365555555555555555555555555555555555555555555555555555555555",
"55555555555555555555555555555555555555555555555555555555555555555536355555555555555555555555555555555555555555555555555555555555",
"55555555555555555555555555555555555555555555555555555555555555555553555555555555555555555555555555555555555555555555555555555555",
"55555555555555555555555555555555555555555555555555555555555555555555555555555555555555555555555555555555555555555555555555555555",
"55555555555555555555555555555555555555555555555555555555555555555555555555555555555555555555555555555555555555555555555555555555",
"55555555555555555555555555555555555555555555555555555555555555555555555555555555555555555555555555555555555555555555555555555555",
"55555555555555555555555555555555555555555555555555555555555555555555555555555555555555555555555555555555555555555555555555555555",
"55555555555555555555555555555555555555555555555555555555555555555555555555555555555555555555555555555555555555555555555555555555",
"55555555555555555555555555555555555555555555555555555555555555555555555555555555555555555555555555555555555555555555555555555555",
"55555555555555555555555555555555555555555555555555555555555555555555555555555555555555555555555555555555555555555555555555555555",
"55555555555555555555555555555555555555555555555555555555555555555555555555555555555555555555555555555555555555555555555555555555",
"55555555555555555555555555555555555555555555535555555555555555555555555555555555555555555555555555555555555555555555555555555555",
"55555555555555555555555555555555555555555555g55555555555555555555555555555555555555555555555555555555555555555555555555555555555",
"55555555555555555555555555555555555555555565m5.555555555555555555555555555555555555555555555555555555555555555555555555555555555",
"55555555555555555555555555555555555555555555L6.555555555555555555555555555555555555555555555555555555555555555555555555555555555",
"55555555555555555555555555555555555555559563L96955555555555555555555555555555555555555555555555555555555555555555555555555555555",
"555555555555555555555555555555555555555530IEREEf55555555555555555555555555555555555555555555555555555555555535555555555555555555",
"55555555555555555555555555555555555555555973E8 35555555555555555555555555555555555555555555555555555555555555a655555555555555555",
"55555555555555555555555555555555555555555 95U5 555555555555555555555555555555555555555555555555555555555555.3b555555555555555555",
"55555555553555555555555555555555555555555555B  55555555555555555555555555555555555555555555555555555555555593P555955555555555555",
"5555555535=;9555555555555555555555555555555503595555555555555555555555555555555555555555555555555555555555=sSRKj5955555555555555",
"5555555559%<5555555555555555555555555555555555355555555555555555555555555555555555555555555555555555555555354J   955555555555555",
"555555553&tp-265555555555555555555555555555555655555555555555555555555555555555555555555555555555555555555553m935555555555555555",
"5555555533O#*55.555555555555555555555555555555555555555555555555555555555555555555555555555555555555555555555q365555555555555555",
"5555555553X<59955555555555555555555555555555555555555555555555555555555555555555555555555555555555555555555555555555555555555555",
"555555555 2;555555555555555555555555555555555555555555555555555555555555555555555555555555555555555555555555 5555555555555555555",
"55555555555555555555555555555555555555555555555555555555555555555555555555555555555555555555555555555555555555555555555555555555",
"55555555555555555555555555555555555595555555555555555555555555555555555555555555555555555555555555555555555555555555555555555555",
"55555555555555555555555555555555555555555555555555555555555555555555555555555555555555555555555555555555555555555555555555555555",
"55555555555555555555555555555555555555555555555555555555555555555555555555555555555555555555555555555555555555555555555555555555",
"555555555555555555555555555555555555555555555555555555555555555555555555555555555555555555555 3555555555555555555555555555555555",
"555555555555555555555555555555555555555555555555555555555555555555555555555555555555555555593M3555555555555555555555555555555555",
"55555555555555555555555555555555555555555555555555555555555555555555555555555555555555555556 K.555555555555555555555555555555555",
"55555555555555555555555555555555555555555555555555555555555555555555555555555555555555555555=E9555555555555555555555555555555555",
"55555555555555555555555555555555555555555555555555555555555355555555555555555555555555555 6->W+*55555555555555555555555555555555",
"555555555555555555555595555555555555555555555555555555555559265555555555555555555555555553ePERESe5555555555555555555555555555555",
"55555555555555555555555555555555555555555555555555555555555 %*5555555555555555555555555557358W9675555555555555555555555555555555",
"555555555555555555555555555555555555555555555555555555555555o-555555555555555555555555555553*E 355555555555555555555555555555555",
"5555555555555555555555555555555555555555555555555555555555>SULN<95555555555555555555555555552J  55555555555555555555555555555555",
"555555555555555555555555555555555555555555555555555555555555o45 955555555555555555555555555558 6 5555555555555555555555555555555",
"555555555555555555555555555555555555555555555555555555555 33X%399555555555555555555555555555555355555555555555555555555555555555",
"555555555555555555555555555555555555555555555555555555555535*3655555555555555555555555555555535555555555555555555555555555555555",
"55555555555555555555555555555555555555555555555555555555555555555555555555555555555555555555555555555555555555555555555555555555",
"55555555555555555555555555555555555555555555555555555555555555555555555555555555555555555555555555555555555555555555555555555555",
"55555555555555555555555555555555555555555555555555555555555555555555555555555555555555555555555555555555555555555559555555555555",
"55555555555555555555555555555555555555555555555555555555555555555555555555555555555555555555555555555555555555555565355555555555",
"55555555555555559555555555555555555555555555555555555555555555555555555555555555555555555555555555555555555555555532%55555555555",
"55555555555555555555555555555555555555555555555553555555555555555555555555555555555555555555555555555555555555555532&99555555555",
"555555555555555 5a555555555555555555555555555555555555555555555555555555555555555555555555555555555555555555555555&1i==555555555",
"55555555555555555S555555555555555555555555555555555555555555555555555555555555555555555555555555555555555555555556vSHl8655555555",
"555555555555555 =U%595555555555555555555555555555555555555555555555555555555555555555555555555555555555555555555558=+.5565555555",
"55555555555555 fYGEM=5555555555555555555555555555355555555555555555555555555555555555555555555555555555555555555555*X55595555555",
"5555555555555555%U$3555555555555555555555555555555555555555555555555555555555555555595555555555555555555555555555553=55555555555"
};
